<svg xmlns="http://www.w3.org/2000/svg" width="256" height="256"><path fill="#1976D2" fill-opacity=".016" fill-rule="evenodd" d="M0 128.004v128.004l128.25-.254 128.25-.254.254-127.75L257.008 0H0zm.485.496c0 70.4.119 99.053.265 63.672s.146-92.98 0-128S.485 58.1.485 128.5"/><path fill="#1976D2" fill-opacity=".191" fill-rule="evenodd" d="M14.22 2.578C8.474 5.441 4.61 9.483 1.867 15.5.139 19.292.044 25.132.044 128s.095 108.708 1.823 112.5c2.743 6.017 6.607 10.059 12.353 12.922L19.393 256h217.214l5.173-2.578c5.93-2.954 9.359-6.647 12.801-13.782l2.419-5.014v-108.48c0-59.664-.279-108.2-.621-107.859s-1.726-1.598-3.077-4.309c-2.75-5.519-6.851-9.398-12.802-12.111C236.709.139 230.84.043 127.946.022L19.393 0zM.483 128c0 60.225.12 84.862.267 54.75.147-30.113.147-79.388 0-109.5C.603 43.137.483 67.775.483 128m121.835-78.904c-31.196 3.635-51.152 25.062-52.975 56.882-.696 12.15 1.247 21.739 6.611 32.62 4.129 8.375 11.363 16.405 14.774 16.398 5.011-.01 10.676-6.21 11.418-12.496.317-2.689.043-3.034-2.646-3.33-4.129-.454-6.817-3.256-10.063-10.489-3.292-7.337-4.439-21.539-2.494-30.905 3.514-16.928 16.504-29.797 32.807-32.499l3.25-.539.016 65.881.017 65.881 2.233 3.896c2.527 4.406 7.703 7.604 12.309 7.604 1.708 0 5.91-1.401 9.337-3.114 17.836-8.913 31.921-40.312 38.303-85.386.757-5.345 1.276-19.153 1.28-34 .004-21.875-.225-25.595-1.832-29.761-2.076-5.381-4.01-6.779-9.687-7.005-6.21-.248-6.36.246-4.938 16.303 2.772 31.284-.996 68.384-9.625 94.778-5.695 17.419-14.603 31.872-19.11 31.005-1.71-.329-1.829-3.838-2.303-68.333-.376-51.159-.804-68.518-1.729-70.132-.932-1.627-7.064-5.005-7.67-4.225-.056.071-3.333.506-7.283.966"/><path fill="#1976D2" fill-opacity=".552" fill-rule="evenodd" d="M18.994.925C12.094 3.049 5.957 8.242 2.362 15 .579 18.352.5 23.126.5 128s.079 109.648 1.862 113c2.599 4.886 7.423 9.789 12.138 12.338l4 2.162h219l4.068-2.178c5.026-2.69 10.56-8.69 12.294-13.329.717-1.921 1.717-4.274 2.221-5.229 1.305-2.472 1.222-215.071-.083-214.264-.55.34-1-.101-1-.981 0-4.761-7.135-13.505-14-17.157-3.345-1.78-8.274-1.87-111.5-2.035C70.1.232 20.372.501 18.994.925M.482 128c0 59.125.121 83.313.268 53.75s.147-77.938 0-107.5C.603 44.687.482 68.875.482 128M117.5 49.478c-22.169 4.109-38.099 17.405-45.239 37.758-3.418 9.744-4.319 28.069-1.858 37.764 3.778 14.878 13.92 30 20.12 30 4.365 0 8.152-2.697 10.448-7.441 3.035-6.268 2.487-9.059-1.778-9.059-3.653 0-5.789-2.124-9.047-9-7.713-16.277-4.028-40.506 8.002-52.622 4.838-4.872 11.174-8.489 17.876-10.205l5.476-1.402.5 65.615c.446 58.579.677 65.936 2.155 68.614 2.927 5.306 6.378 7.749 11.663 8.257 18.995 1.825 37.912-26.572 46.625-69.99 3.6-17.937 4.894-31.89 4.94-53.267.061-28.287-2.103-35.151-11.419-36.201-3.532-.398-4.826-.109-6.172 1.379-1.489 1.645-1.573 2.759-.668 8.852 1.641 11.046 1.3 47.089-.582 61.47-4.142 31.656-13.218 58.478-22.995 67.954-6.869 6.658-6.547 9.904-6.547-66V53.846l-2.923-2.923c-3.361-3.361-6.798-3.628-18.577-1.445"/><path fill="#1976D2" fill-opacity=".637" fill-rule="evenodd" d="M18.821 1.384C13.598 2.802 8.107 6.59 5.244 10.748.31 17.913.5 13.205.5 128.5v108l2.355 4.738c2.638 5.31 7.384 9.902 12.932 12.514C19.25 255.382 26.8 255.5 128 255.5c119.64 0 111.171.434 118.928-6.093 3.427-2.884 8.072-11.121 8.072-14.315 0-1.086.45-2.252 1-2.592.656-.406 1-36.697 1-105.618 0-69.745-.336-104.793-1-104.382-.55.34-1-.254-1-1.319 0-6.064-6.498-14.717-13.762-18.326L236.5.5 130 .306C46.479.154 22.49.387 18.821 1.384M.482 128c0 58.025.12 81.762.268 52.75.147-29.013.147-76.488 0-105.5C.602 46.237.482 69.975.482 128m112.734-77.981C91.448 55.722 76.107 70.778 70.439 92c-2.158 8.082-2.449 25.373-.555 33 3.197 12.873 11.32 25.985 18.348 29.62 2.606 1.348 3.234 1.318 6.562-.315 4.856-2.382 8.206-7.512 8.206-12.566 0-3.856-.085-3.954-3.062-3.517-6.862 1.008-12.947-12.446-12.926-28.577.013-10.443 1.544-17.221 5.551-24.583 4.991-9.171 15.455-16.749 25.687-18.605l3.75-.68v129.908l2.324 4.395c7.218 13.649 24.607 10.104 37.179-7.58 12.104-17.026 20.374-41.991 24.678-74.5 1.73-13.063 1.725-55.109-.007-60.865-1.909-6.346-5.095-9.135-10.437-9.135-7.764 0-8.112.754-6.691 14.531 2.355 22.845.259 57.404-4.921 81.138C159.26 165.961 147.737 190 141.916 190c-1.869 0-1.916-1.639-1.916-66.532 0-71.003-.053-71.821-4.85-74.388-3.081-1.649-13.81-1.19-21.934.939"/></svg>